<svg width="100" height="100" viewBox="0 0 100 100" fill="none" xmlns="http://www.w3.org/2000/svg">
<circle cx="50" cy="50" r="50" fill="white"/>
<g filter="url(#filter0_d_192_7)">
<path d="M25.4545 75C23.9545 75 22.6709 74.3012 21.6036 72.9036C20.5345 71.5036 20 69.8214 20 67.8571V32.1429C20 30.1786 20.5345 28.4976 21.6036 27.1C22.6709 25.7 23.9545 25 25.4545 25H52.7273C54.2273 25 55.5118 25.7 56.5809 27.1C57.6482 28.4976 58.1818 30.1786 58.1818 32.1429V67.8571C58.1818 69.8214 57.6482 71.5036 56.5809 72.9036C55.5118 74.3012 54.2273 75 52.7273 75H25.4545ZM66.3636 46.4286C65.5909 46.4286 64.9436 46.0857 64.4218 45.4C63.8982 44.7167 63.6364 43.869 63.6364 42.8571V28.5714C63.6364 27.5595 63.8982 26.7107 64.4218 26.025C64.9436 25.3417 65.5909 25 66.3636 25H77.2727C78.0455 25 78.6927 25.3417 79.2145 26.025C79.7382 26.7107 80 27.5595 80 28.5714V42.8571C80 43.869 79.7382 44.7167 79.2145 45.4C78.6927 46.0857 78.0455 46.4286 77.2727 46.4286H66.3636ZM30.9091 60.7143H47.2727C47.8182 60.7143 48.2273 60.3869 48.5 59.7321C48.7727 59.0774 48.7273 58.4524 48.3636 57.8571L43.9318 50.0893C43.6591 49.6131 43.2955 49.375 42.8409 49.375C42.3864 49.375 42.0227 49.6131 41.75 50.0893L37.7273 57.1429L35.0682 52.5C34.7955 52.0238 34.4318 51.7857 33.9773 51.7857C33.5227 51.7857 33.1591 52.0238 32.8864 52.5L29.8182 57.8571C29.4545 58.4524 29.4091 59.0774 29.6818 59.7321C29.9545 60.3869 30.3636 60.7143 30.9091 60.7143ZM66.3636 75C65.5909 75 64.9436 74.6571 64.4218 73.9714C63.8982 73.2881 63.6364 72.4405 63.6364 71.4286V57.1429C63.6364 56.131 63.8982 55.2821 64.4218 54.5964C64.9436 53.9131 65.5909 53.5714 66.3636 53.5714H77.2727C78.0455 53.5714 78.6927 53.9131 79.2145 54.5964C79.7382 55.2821 80 56.131 80 57.1429V71.4286C80 72.4405 79.7382 73.2881 79.2145 73.9714C78.6927 74.6571 78.0455 75 77.2727 75H66.3636Z" fill="#227C70"/>
</g>
<defs>
<filter id="filter0_d_192_7" x="16" y="25" width="68" height="58" filterUnits="userSpaceOnUse" color-interpolation-filters="sRGB">
<feFlood flood-opacity="0" result="BackgroundImageFix"/>
<feColorMatrix in="SourceAlpha" type="matrix" values="0 0 0 0 0 0 0 0 0 0 0 0 0 0 0 0 0 0 127 0" result="hardAlpha"/>
<feOffset dy="4"/>
<feGaussianBlur stdDeviation="2"/>
<feComposite in2="hardAlpha" operator="out"/>
<feColorMatrix type="matrix" values="0 0 0 0 0 0 0 0 0 0 0 0 0 0 0 0 0 0 0.25 0"/>
<feBlend mode="normal" in2="BackgroundImageFix" result="effect1_dropShadow_192_7"/>
<feBlend mode="normal" in="SourceGraphic" in2="effect1_dropShadow_192_7" result="shape"/>
</filter>
</defs>
</svg>
